<svg xmlns="http://www.w3.org/2000/svg" viewBox="0 0 520 560" width="520" height="560">
  <g font-family="Helvetica, Arial, sans-serif">
  <rect width="520" height="560" fill="#fbfbfb"/>
  <text x="20" y="28" fill="#9a9a9a" font-size="12">Low-Fi Wireframe · Dodawanie książki (modal na przyciemnionym tle)</text>

  <rect x="20" y="44" width="480" height="496" rx="14" fill="#efefef" stroke="#e2e2e2"/>
  <rect x="90" y="80" width="340" height="430" rx="20" fill="#ffffff" stroke="#c8c8c8"/>

  <text x="114" y="116" fill="#555555" font-weight="600" font-size="15">Dodaj książkę</text>
  <text x="404" y="116" fill="#aaaaaa" font-size="11" text-anchor="end">✕</text>

  <text x="114" y="150" fill="#8a8a8a" font-size="11">Tytuł</text>
  <rect x="114" y="158" width="292" height="34" rx="9" fill="#ffffff" stroke="#d5d5d5"/>
  <text x="126" y="180" fill="#aaaaaa" font-size="11">np. Basic Economics</text>

  <text x="114" y="216" fill="#8a8a8a" font-size="11">Autor</text>
  <rect x="114" y="224" width="292" height="34" rx="9" fill="#ffffff" stroke="#d5d5d5"/>
  <text x="126" y="246" fill="#aaaaaa" font-size="11">np. Thomas Sowell</text>

  <text x="114" y="282" fill="#8a8a8a" font-size="11">Tag</text>
  <rect x="114" y="290" width="138" height="34" rx="9" fill="#ffffff" stroke="#d5d5d5"/>
  <text x="268" y="282" fill="#8a8a8a" font-size="11">Priorytet</text>
  <rect x="268" y="290" width="138" height="34" rx="9" fill="#ffffff" stroke="#d5d5d5"/>
  <path d="M386 303 l6 6 l6 -6" fill="none" stroke="#bbbbbb"/>

  <text x="114" y="348" fill="#8a8a8a" font-size="11">Termin</text>
  <rect x="114" y="356" width="138" height="34" rx="9" fill="#ffffff" stroke="#d5d5d5"/>
  <text x="268" y="348" fill="#8a8a8a" font-size="11">Status</text>
  <rect x="268" y="356" width="138" height="34" rx="9" fill="#ffffff" stroke="#d5d5d5"/>
  <text x="126" y="378" fill="#aaaaaa" font-size="11">dd.mm.rrrr</text>
  <text x="280" y="378" fill="#aaaaaa" font-size="11">Kolejka</text>
  <path d="M386 369 l6 6 l6 -6" fill="none" stroke="#bbbbbb"/>

  <line x1="90" y1="446" x2="430" y2="446" stroke="#ededed"/>
  <rect x="252" y="462" width="74" height="34" rx="17" fill="#ffffff" stroke="#cccccc"/>
  <text x="289" y="484" fill="#aaaaaa" font-size="11" text-anchor="middle">Anuluj</text>
  <rect x="334" y="462" width="74" height="34" rx="17" fill="#555555"/>
  <text x="371" y="484" fill="#ffffff" font-size="11" text-anchor="middle">Zapisz</text>

  <text x="20" y="552" fill="#aaaaaa" font-size="11">Pola wymagane: Tytuł. Walidacja: puste pole → czerwone obramowanie + komunikat „Podaj tytuł”.</text>
  </g>
</svg>
