<svg xmlns="http://www.w3.org/2000/svg" viewBox="0 0 520 500" width="520" height="500">
  <rect width="520" height="500" fill="#f0f0f0"/>
  <rect x="20" y="20" width="480" height="460" fill="#e4e4e4"/>
  <rect x="100" y="90" width="320" height="360" fill="#ffffff" stroke="#b8b8b8"/>

  <!-- title + close -->
  <rect x="124" y="116" width="120" height="14" fill="#cfcfcf"/>
  <rect x="378" y="114" width="18" height="18" fill="#dcdcdc"/>

  <!-- sekcja 1: nagłówek + wiersz + toggle -->
  <rect x="124" y="150" width="60" height="8" fill="#d8d8d8"/>
  <rect x="124" y="172" width="90" height="9" fill="#cfcfcf"/>
  <rect x="124" y="187" width="130" height="6" fill="#e4e4e4"/>
  <rect x="356" y="168" width="40" height="22" rx="11" fill="#cfcfcf"/>
  <circle cx="380" cy="179" r="9" fill="#ffffff" stroke="#c2c2c2"/>
  <line x1="124" y1="208" x2="396" y2="208" stroke="#ececec"/>

  <!-- sekcja 2: nagłówek + wiersz + select -->
  <rect x="124" y="226" width="72" height="8" fill="#d8d8d8"/>
  <rect x="124" y="248" width="100" height="9" fill="#cfcfcf"/>
  <rect x="124" y="263" width="140" height="6" fill="#e4e4e4"/>
  <rect x="348" y="244" width="48" height="24" fill="#ededed" stroke="#cfcfcf"/>
  <line x1="124" y1="284" x2="396" y2="284" stroke="#ececec"/>

  <!-- sekcja 3: nagłówek + wiersz + przycisk -->
  <rect x="124" y="302" width="50" height="8" fill="#d8d8d8"/>
  <rect x="124" y="324" width="110" height="9" fill="#cfcfcf"/>
  <rect x="124" y="339" width="120" height="6" fill="#e4e4e4"/>
  <rect x="330" y="320" width="66" height="24" fill="#ffffff" stroke="#cbb6b6"/>

  <!-- wersja -->
  <rect x="224" y="412" width="72" height="8" fill="#e0e0e0"/>
</svg>
