<svg xmlns="http://www.w3.org/2000/svg" viewBox="0 0 1000 520" width="1000" height="520">
  <rect width="1000" height="520" fill="#f0f0f0"/>

  <!-- ===== DESKTOP ===== -->
  <rect x="20" y="20" width="680" height="470" fill="#ffffff" stroke="#b8b8b8"/>

  <!-- header -->
  <rect x="40" y="40" width="90" height="24" fill="#cfcfcf"/>
  <rect x="150" y="40" width="250" height="26" fill="#ededed" stroke="#d2d2d2"/>
  <circle cx="612" cy="53" r="11" fill="#dcdcdc"/>
  <rect x="638" y="40" width="52" height="26" fill="#b9b9b9"/>
  <line x1="20" y1="84" x2="700" y2="84" stroke="#e2e2e2"/>

  <!-- filter row -->
  <rect x="40" y="98" width="64" height="22" fill="#e6e6e6" stroke="#d2d2d2"/>
  <rect x="114" y="98" width="84" height="22" fill="#e6e6e6" stroke="#d2d2d2"/>
  <rect x="606" y="98" width="84" height="22" fill="#e6e6e6" stroke="#d2d2d2"/>

  <!-- column headers -->
  <rect x="40" y="142" width="70" height="10" fill="#cfcfcf"/>
  <rect x="216" y="142" width="20" height="12" fill="#e0e0e0"/>
  <rect x="252" y="142" width="70" height="10" fill="#cfcfcf"/>
  <rect x="428" y="142" width="20" height="12" fill="#e0e0e0"/>
  <rect x="464" y="142" width="70" height="10" fill="#cfcfcf"/>
  <rect x="640" y="142" width="20" height="12" fill="#e0e0e0"/>

  <!-- KOLEJKA cards (x=40) -->
  <g transform="translate(40,170)">
    <g><rect width="196" height="56" fill="#ffffff" stroke="#cccccc"/><rect x="12" y="12" width="120" height="9" fill="#d2d2d2"/><rect x="12" y="28" width="74" height="7" fill="#e2e2e2"/><rect x="12" y="42" width="40" height="8" fill="#e6e6e6"/></g>
    <g transform="translate(0,66)"><rect width="196" height="56" fill="#ffffff" stroke="#cccccc"/><rect x="12" y="12" width="140" height="9" fill="#d2d2d2"/><rect x="12" y="28" width="70" height="7" fill="#e2e2e2"/><rect x="12" y="42" width="40" height="8" fill="#e6e6e6"/></g>
    <g transform="translate(0,132)"><rect width="196" height="56" fill="#ffffff" stroke="#cccccc"/><rect x="12" y="12" width="110" height="9" fill="#d2d2d2"/><rect x="12" y="28" width="84" height="7" fill="#e2e2e2"/><rect x="12" y="42" width="40" height="8" fill="#e6e6e6"/></g>
    <g transform="translate(0,198)"><rect width="196" height="56" fill="#ffffff" stroke="#cccccc"/><rect x="12" y="12" width="132" height="9" fill="#d2d2d2"/><rect x="12" y="28" width="66" height="7" fill="#e2e2e2"/><rect x="12" y="42" width="40" height="8" fill="#e6e6e6"/></g>
  </g>

  <!-- W TRAKCIE (x=252) -->
  <g transform="translate(252,170)">
    <g><rect width="196" height="56" fill="#ffffff" stroke="#cccccc"/><rect x="12" y="12" width="124" height="9" fill="#d2d2d2"/><rect x="12" y="28" width="72" height="7" fill="#e2e2e2"/><rect x="12" y="42" width="40" height="8" fill="#e6e6e6"/></g>
    <rect y="66" width="196" height="56" fill="none" stroke="#cfcfcf" stroke-dasharray="6 5"/>
  </g>

  <!-- SKOŃCZONE (x=464) -->
  <g transform="translate(464,170)">
    <g><rect width="196" height="56" fill="#f6f6f6" stroke="#dcdcdc"/><rect x="12" y="12" width="118" height="9" fill="#e4e4e4"/><rect x="12" y="28" width="70" height="7" fill="#ececec"/></g>
  </g>

  <!-- ===== MOBILE ===== -->
  <rect x="720" y="20" width="260" height="470" fill="#ffffff" stroke="#b8b8b8"/>

  <rect x="740" y="40" width="76" height="22" fill="#cfcfcf"/>
  <circle cx="902" cy="51" r="11" fill="#dcdcdc"/>
  <rect x="930" y="40" width="30" height="22" fill="#b9b9b9"/>

  <rect x="740" y="78" width="220" height="26" fill="#ededed" stroke="#d2d2d2"/>

  <!-- segmented -->
  <rect x="740" y="116" width="220" height="28" fill="#e6e6e6" stroke="#d2d2d2"/>
  <rect x="743" y="119" width="71" height="22" fill="#ffffff" stroke="#cfcfcf"/>

  <!-- cards -->
  <g transform="translate(740,160)">
    <g><rect width="220" height="56" fill="#ffffff" stroke="#cccccc"/><rect x="12" y="12" width="130" height="9" fill="#d2d2d2"/><rect x="12" y="28" width="80" height="7" fill="#e2e2e2"/><rect x="12" y="42" width="40" height="8" fill="#e6e6e6"/></g>
    <g transform="translate(0,68)"><rect width="220" height="56" fill="#ffffff" stroke="#cccccc"/><rect x="12" y="12" width="150" height="9" fill="#d2d2d2"/><rect x="12" y="28" width="70" height="7" fill="#e2e2e2"/><rect x="12" y="42" width="40" height="8" fill="#e6e6e6"/></g>
    <g transform="translate(0,136)"><rect width="220" height="56" fill="#ffffff" stroke="#cccccc"/><rect x="12" y="12" width="116" height="9" fill="#d2d2d2"/><rect x="12" y="28" width="86" height="7" fill="#e2e2e2"/><rect x="12" y="42" width="40" height="8" fill="#e6e6e6"/></g>
    <g transform="translate(0,204)"><rect width="220" height="56" fill="#ffffff" stroke="#cccccc"/><rect x="12" y="12" width="138" height="9" fill="#d2d2d2"/><rect x="12" y="28" width="64" height="7" fill="#e2e2e2"/><rect x="12" y="42" width="40" height="8" fill="#e6e6e6"/></g>
  </g>
</svg>
